<svg xmlns="http://www.w3.org/2000/svg" xmlns:xlink="http://www.w3.org/1999/xlink" version="1.1" id="Réteg_1" x="0px" y="0px" xml:space="preserve" viewBox="8.73 161.3 1903.11 223.33"><style type="text/css">	.st0{fill:#00AA02;}	.st1{fill:none;}</style><g>	<path d="M159.44,238.55c0.04-4.02-2.05-7.71-5.6-9.86l-41.03-26c-2.84-1.8-6.46-1.82-9.32-0.05l-6.21,3.84   c-3.83,2.37-8.66,2.4-12.52,0.06l-18.03-10.91c-5.55-3.36-12.48-3.43-18.1-0.19l-33.22,19.18c-4.06,2.34-6.68,6.88-6.68,11.56   v102.67c0,0.72,0.4,1.39,1.03,1.73l21.97,11.53c1.3,0.7,2.88-0.25,2.88-1.73v-99.36c0-4.99,2.66-9.6,6.98-12.09l14.38-8.05   c1.83-1.06,2.41-1.19,4.22-0.09l0,0c1.84,1.11,1.82,3.78-0.03,4.86l-14.16,8.09c-4.06,2.34-4.48,5.27-4.48,9.96V346.4   c0,0.72,0.39,1.38,1.02,1.72L73.2,365.6c1.3,0.71,2.9-0.23,2.9-1.72v-99.4c0-5.08,2.71-9.77,7.1-12.31l25.86-14.74   c1.82-1.05,3.84-1.67,5.64-0.58l1.12,0.97c1.83,1.11,1.81,3.76-0.02,4.85L87.9,258.87c-4.06,2.34-4.46,5.26-4.46,9.94v102.67   c0,0.73,0.4,1.39,1.04,1.73l20.97,11.19c1.3,0.69,2.87-0.26,2.87-1.73V282.63c0-4.49,2.4-8.64,6.29-10.89l39.03-23.45   C157.23,246.21,159.4,242.57,159.44,238.55z"></path>	<path class="st0" d="M205.67,214.61l-88.44-51.06c-4.06-2.34-9.3-2.34-13.35,0l-37.27,21.1c-1.15,0.67-1.17,2.33-0.03,3.02   l18.77,11.32c2.66,1.51,5.08,1.86,9.65-0.8l10.55-5.61c2.92-1.33,4.91-1.34,8.03,0.5c0,0,53.83,34.21,53.93,34.27   c3.34,2.17,6.27,11.5,0.54,17.34c-3.64,3.71-47.11,29.1-47.11,29.1c-2.85,1.71-4.59,4.79-4.59,8.11l0,95.55   c0,2.79,2.97,4.58,5.44,3.27l14.76-9.53c1.93-1.02,3.14-3.03,3.14-5.22v-13.11c0-3.49,1.81-6.73,4.78-8.57l63.44-37.68   c2.76-1.7,4.44-4.72,4.44-7.96v-72.47C212.35,221.49,209.73,216.95,205.67,214.61z M188.55,289.8l-41.19,24.8   c-2.99,1.85-6.85-0.3-6.85-3.82v-16.55c0-3.03,1.59-5.84,4.19-7.41l37.21-21.67c4.27-2.57,9.72,0.51,9.72,5.5v13.64   C191.63,286.54,190.46,288.62,188.55,289.8z"></path></g><path class="st1" d="M234.69,381.08"></path><g>	<path d="M344.16,339.21c-1.91,2.09-3.55,3.14-4.93,3.14c-1.38,0-3.17-1.04-5.36-3.14l-33.71-32.47v65.12   c0,2.34-0.07,4.12-0.21,5.35c-0.14,1.23-0.5,2.12-1.07,2.67c-0.57,0.55-1.48,0.89-2.71,1.01c-1.24,0.12-2.95,0.18-5.14,0.18h-22.57   c-2.19,0-3.91-0.06-5.14-0.18c-1.24-0.12-2.14-0.46-2.71-1.01c-0.57-0.55-0.93-1.44-1.07-2.67c-0.14-1.23-0.21-3.01-0.21-5.35   v-119.9c0-2.33,0.07-4.12,0.21-5.35c0.14-1.23,0.5-2.12,1.07-2.67c0.57-0.55,1.48-0.89,2.71-1.01c1.24-0.12,2.95-0.18,5.14-0.18   h31.71l38.99,44.64l38.99-44.64h31.71c2.19,0,3.9,0.06,5.14,0.18c1.24,0.12,2.14,0.46,2.71,1.01c0.57,0.55,0.93,1.45,1.07,2.67   c0.14,1.23,0.21,3.01,0.21,5.35v119.9c0,2.34-0.07,4.12-0.21,5.35c-0.14,1.23-0.5,2.12-1.07,2.67c-0.57,0.55-1.48,0.89-2.71,1.01   c-1.24,0.12-2.95,0.18-5.14,0.18h-22.57c-2.19,0-3.91-0.06-5.14-0.18c-1.24-0.12-2.14-0.46-2.71-1.01   c-0.57-0.55-0.93-1.44-1.07-2.67c-0.14-1.23-0.21-3.01-0.21-5.35v-65.12L344.16,339.21z"></path>	<path d="M568.25,348.25c0,7.87-0.67,14.02-2,18.45c-1.33,4.43-3.38,7.69-6.14,9.78c-2.76,2.09-6.26,3.38-10.5,3.87   c-4.24,0.49-9.21,0.74-14.92,0.74h-73.55c-2.76,0-6-0.09-9.71-0.28c-3.71-0.18-7.21-1.23-10.5-3.14c-3.29-1.91-6.07-5.07-8.36-9.5   c-2.29-4.43-3.43-10.94-3.43-19.55v-73.05c0-7.87,0.67-14.02,2-18.45c1.33-4.43,3.36-7.68,6.07-9.78   c2.71-2.09,6.16-3.38,10.35-3.87c4.19-0.49,9.14-0.74,14.85-0.74h73.84c2.76,0,6,0.09,9.71,0.28s7.21,1.23,10.5,3.14   c3.29,1.91,6.07,5.07,8.35,9.5c2.29,4.43,3.43,10.95,3.43,19.55V348.25z M469.98,333.68c0,3.2,0.07,5.75,0.21,7.65   c0.14,1.91,0.43,3.38,0.86,4.43c0.43,1.05,1.09,1.72,2,2.03c0.9,0.31,2.16,0.46,3.78,0.46h43.99c1.33,0,2.4-0.12,3.21-0.37   c0.81-0.25,1.43-0.77,1.86-1.57c0.43-0.8,0.74-1.91,0.93-3.32c0.19-1.41,0.29-3.29,0.29-5.63v-47.22c0-3.07-0.02-5.59-0.07-7.56   c-0.05-1.97-0.24-3.44-0.57-4.43c-0.33-0.98-0.95-1.66-1.86-2.03c-0.91-0.37-2.21-0.55-3.93-0.55h-43.7   c-1.33,0-2.45,0.09-3.36,0.28c-0.91,0.18-1.62,0.62-2.14,1.29c-0.52,0.68-0.91,1.75-1.14,3.23c-0.24,1.48-0.36,3.5-0.36,6.09   V333.68z"></path>	<path d="M611.81,242.74c2.19,0,3.9,0.06,5.14,0.18c1.24,0.12,2.14,0.46,2.71,1.01c0.57,0.55,0.93,1.45,1.07,2.67   c0.14,1.23,0.21,3.01,0.21,5.35v55.15c0,5.66,0.05,10.02,0.14,13.1c0.09,3.08,0.38,5.32,0.86,6.73c0.48,1.42,1.24,2.25,2.29,2.49   c1.05,0.25,2.52,0.37,4.43,0.37h45.7v51.28h-51.42c-10.19,0-18.14-0.18-23.85-0.55c-5.71-0.37-9.98-1.57-12.78-3.6   c-2.81-2.03-4.55-5.26-5.21-9.68c-0.67-4.43-1-10.7-1-18.82v-96.47c0-2.33,0.07-4.12,0.21-5.35c0.14-1.23,0.5-2.12,1.07-2.67   c0.57-0.55,1.48-0.89,2.71-1.01c1.24-0.12,2.95-0.18,5.14-0.18H611.81z"></path>	<path d="M822.04,344.93c0,8.61-1.14,15.31-3.43,20.11s-5.07,8.39-8.35,10.79c-3.28,2.4-6.78,3.87-10.5,4.43s-6.95,0.83-9.71,0.83   h-98.26c-2.19,0-3.91-0.06-5.14-0.18c-1.24-0.12-2.14-0.46-2.71-1.01c-0.57-0.55-0.93-1.44-1.07-2.67   c-0.14-1.23-0.21-3.01-0.21-5.35v-119.9c0-2.33,0.07-4.12,0.21-5.35c0.14-1.23,0.5-2.12,1.07-2.67c0.57-0.55,1.48-0.89,2.71-1.01   c1.24-0.12,2.95-0.18,5.14-0.18h98.26c2.76,0,6,0.28,9.71,0.83s7.21,2.03,10.5,4.43c3.29,2.4,6.07,6,8.35,10.79   s3.43,11.5,3.43,20.11V344.93z M781.19,294.02c0-2.21-0.07-4.43-0.21-6.64c-0.14-2.21-0.43-4.21-0.86-6c-0.43-1.78-1.1-3.2-2-4.24   c-0.91-1.04-2.12-1.57-3.64-1.57h-43.7c-1.33,0-2.45,0.09-3.36,0.28c-0.91,0.18-1.62,0.62-2.14,1.29   c-0.52,0.68-0.91,1.75-1.14,3.23c-0.24,1.48-0.36,3.5-0.36,6.09v50.91c0,2.58,0.12,4.61,0.36,6.09c0.24,1.48,0.62,2.55,1.14,3.23   c0.52,0.68,1.24,1.11,2.14,1.29c0.9,0.18,2.02,0.28,3.36,0.28h43.7c3.05,0,4.93-1.6,5.64-4.8c0.71-3.2,1.07-7.07,1.07-11.62V294.02   z"></path>	<path class="st0" d="M895.88,275.2c0-8.61,1.14-15.13,3.43-19.55c2.29-4.43,5.07-7.59,8.36-9.5c3.28-1.91,6.78-2.95,10.5-3.14   s6.95-0.28,9.71-0.28h73.84c5.71,0,10.66,0.25,14.85,0.74c4.19,0.49,7.64,1.78,10.36,3.87c2.71,2.09,4.74,5.35,6.07,9.78   c1.33,4.43,2,10.58,2,18.45v42.61c0.09,4.67-0.48,8.79-1.71,12.36c-1.24,3.57-2.91,6.58-5,9.04c-2.1,2.46-4.48,4.31-7.14,5.53   c-2.67,1.23-5.43,1.84-8.28,1.84h-75.84v34.13h-41.13V275.2z M937.01,311.54h57.13v-25.09c0-2.58-0.1-4.61-0.29-6.09   c-0.19-1.48-0.52-2.55-1-3.23c-0.48-0.67-1.14-1.11-2-1.29c-0.86-0.18-1.95-0.28-3.28-0.28h-43.7c-1.52,0-2.74,0.12-3.64,0.37   c-0.91,0.25-1.6,0.74-2.07,1.48c-0.48,0.74-0.79,1.82-0.93,3.23c-0.14,1.42-0.21,3.35-0.21,5.81V311.54z"></path>	<path class="st0" d="M1143.39,346.96h-57.13v34.13h-41.13V275.2c0-8.61,1.14-15.13,3.43-19.55c2.29-4.43,5.07-7.59,8.36-9.5   c3.28-1.91,6.78-2.95,10.5-3.14c3.71-0.18,6.95-0.28,9.71-0.28h73.84c5.71,0,10.66,0.25,14.85,0.74c4.19,0.49,7.64,1.78,10.35,3.87   c2.71,2.09,4.74,5.35,6.07,9.78c1.33,4.43,2,10.58,2,18.45v105.51h-40.85V346.96z M1086.26,311.54h57.13v-25.09   c0-2.58-0.1-4.61-0.29-6.09c-0.19-1.48-0.52-2.55-1-3.23c-0.48-0.67-1.14-1.11-2-1.29c-0.86-0.18-1.95-0.28-3.29-0.28h-43.7   c-1.52,0-2.74,0.12-3.64,0.37c-0.91,0.25-1.6,0.74-2.07,1.48c-0.48,0.74-0.79,1.82-0.93,3.23c-0.14,1.42-0.21,3.35-0.21,5.81   V311.54z"></path>	<path class="st0" d="M1193.23,275.2c0-8.61,1.14-15.13,3.43-19.55c2.29-4.43,5.07-7.59,8.36-9.5c3.28-1.91,6.78-2.95,10.5-3.14   c3.71-0.18,6.95-0.28,9.71-0.28h73.84c5.71,0,10.66,0.25,14.85,0.74c4.19,0.49,7.64,1.78,10.35,3.87c2.71,2.09,4.74,5.35,6.07,9.78   c1.33,4.43,2,10.58,2,18.45v42.61c0.09,6.89-1.14,12.54-3.71,16.97c-2.57,4.43-5.71,7.63-9.43,9.59l12.71,36.34h-39.56   l-10.14-34.13h-47.85v34.13h-41.13V275.2z M1234.36,311.54h57.13v-25.09c0-2.58-0.1-4.61-0.29-6.09c-0.19-1.48-0.52-2.55-1-3.23   c-0.48-0.67-1.14-1.11-2-1.29c-0.86-0.18-1.95-0.28-3.29-0.28h-43.7c-1.52,0-2.74,0.12-3.64,0.37c-0.91,0.25-1.6,0.74-2.07,1.48   c-0.48,0.74-0.79,1.82-0.93,3.23c-0.14,1.42-0.21,3.35-0.21,5.81V311.54z"></path>	<path class="st0" d="M1378.75,290.14h-34.28v-14.57c0-7.87,0.67-14.02,2-18.45c1.33-4.43,3.36-7.68,6.07-9.78   c2.71-2.09,6.16-3.38,10.35-3.87c4.19-0.49,9.14-0.74,14.85-0.74h59.56c2.76,0,6,0.09,9.71,0.28c3.71,0.18,7.21,1.23,10.5,3.14   c3.29,1.91,6.07,5.07,8.36,9.5c2.29,4.43,3.43,10.95,3.43,19.55v14.94h-35.85c0-2.95-0.02-5.38-0.07-7.29   c-0.05-1.91-0.29-3.41-0.71-4.52c-0.43-1.11-1.07-1.84-1.93-2.21c-0.86-0.37-2.14-0.55-3.86-0.55v96.29c0,2.34-0.07,4.12-0.21,5.35   c-0.14,1.23-0.5,2.12-1.07,2.67c-0.57,0.55-1.48,0.89-2.71,1.01c-1.24,0.12-2.95,0.18-5.14,0.18h-22.57   c-2.19,0-3.91-0.06-5.14-0.18c-1.24-0.12-2.14-0.46-2.71-1.01c-0.57-0.55-0.93-1.44-1.07-2.67c-0.14-1.23-0.21-3.01-0.21-5.35   v-96.29h-0.29c-1.71,0-3.05,0.09-4,0.28c-0.95,0.18-1.64,0.77-2.07,1.75c-0.43,0.99-0.69,2.46-0.79,4.43   C1378.8,283.99,1378.75,286.7,1378.75,290.14z"></path>	<path class="st0" d="M1490.3,381.08c-2.19,0-3.91-0.06-5.14-0.18c-1.24-0.12-2.14-0.46-2.71-1.01c-0.57-0.55-0.93-1.44-1.07-2.67   c-0.14-1.23-0.21-3.01-0.21-5.35v-119.9c0-2.33,0.07-4.12,0.21-5.35c0.14-1.23,0.5-2.12,1.07-2.67c0.57-0.55,1.47-0.89,2.71-1.01   c1.24-0.12,2.95-0.18,5.14-0.18H1522l53.27,63.09v-53.86c0-2.33,0.07-4.12,0.21-5.35c0.14-1.23,0.5-2.12,1.07-2.67   c0.57-0.55,1.47-0.89,2.71-1.01c1.24-0.12,2.95-0.18,5.14-0.18h22.57c2.19,0,3.9,0.06,5.14,0.18c1.24,0.12,2.14,0.46,2.71,1.01   c0.57,0.55,0.93,1.45,1.07,2.67c0.14,1.23,0.21,3.01,0.21,5.35v119.9c0,2.34-0.07,4.12-0.21,5.35c-0.14,1.23-0.5,2.12-1.07,2.67   c-0.57,0.55-1.48,0.89-2.71,1.01c-1.24,0.12-2.95,0.18-5.14,0.18h-31.71L1522,317.81v54.05c0,2.34-0.07,4.12-0.21,5.35   c-0.14,1.23-0.5,2.12-1.07,2.67c-0.57,0.55-1.48,0.89-2.71,1.01c-1.24,0.12-2.95,0.18-5.14,0.18H1490.3z"></path>	<path class="st0" d="M1724.38,325.74h-57.42v11.99c0,2.46,0,4.37,0,5.72c0,1.35,0.07,2.4,0.21,3.14s0.43,1.2,0.86,1.38   c0.43,0.18,1.07,0.28,1.93,0.28h51.7c0.67,0,1.19-0.09,1.57-0.28c0.38-0.18,0.64-0.65,0.79-1.38c0.14-0.74,0.24-1.78,0.29-3.14   c0.05-1.35,0.07-3.26,0.07-5.72h39.13c-0.19,6.15-0.24,11.87-0.14,17.15c0.09,5.29-0.17,9.87-0.79,13.74   c-0.62,3.87-1.86,6.92-3.71,9.13c-1.86,2.21-4.83,3.32-8.93,3.32h-114.69c-2.19,0-3.91-0.06-5.14-0.18   c-1.24-0.12-2.14-0.46-2.71-1.01c-0.57-0.55-0.93-1.44-1.07-2.67c-0.14-1.23-0.21-3.01-0.21-5.35v-119.9   c0-2.33,0.07-4.12,0.21-5.35c0.14-1.23,0.5-2.12,1.07-2.67c0.57-0.55,1.48-0.89,2.71-1.01c1.24-0.12,2.95-0.18,5.14-0.18h114.69   c4.09,0,7.07,1.11,8.93,3.32c1.86,2.21,3.09,5.26,3.71,9.13c0.62,3.87,0.88,8.46,0.79,13.74c-0.1,5.29-0.05,11.01,0.14,17.15   h-39.13c0-2.33-0.02-4.21-0.07-5.63c-0.05-1.41-0.14-2.49-0.29-3.23c-0.14-0.74-0.41-1.2-0.79-1.38c-0.38-0.18-0.91-0.28-1.57-0.28   h-51.7c-0.86,0-1.5,0.09-1.93,0.28c-0.43,0.18-0.71,0.65-0.86,1.38s-0.21,1.82-0.21,3.23c0,1.42,0,3.29,0,5.63v12.17h57.42V325.74z   "></path>	<path class="st0" d="M1772.23,275.2c0-8.61,1.14-15.13,3.43-19.55c2.29-4.43,5.07-7.59,8.36-9.5c3.28-1.91,6.78-2.95,10.5-3.14   c3.71-0.18,6.95-0.28,9.71-0.28h73.84c5.71,0,10.66,0.25,14.85,0.74c4.19,0.49,7.64,1.78,10.35,3.87c2.71,2.09,4.74,5.35,6.07,9.78   c1.33,4.43,2,10.58,2,18.45v42.61c0.09,6.89-1.14,12.54-3.71,16.97c-2.57,4.43-5.71,7.63-9.43,9.59l12.71,36.34h-39.56   l-10.14-34.13h-47.85v34.13h-41.13V275.2z M1813.36,311.54h57.13v-25.09c0-2.58-0.1-4.61-0.29-6.09c-0.19-1.48-0.52-2.55-1-3.23   c-0.48-0.67-1.14-1.11-2-1.29c-0.86-0.18-1.95-0.28-3.29-0.28h-43.7c-1.52,0-2.74,0.12-3.64,0.37c-0.91,0.25-1.6,0.74-2.07,1.48   c-0.48,0.74-0.79,1.82-0.93,3.23c-0.14,1.42-0.21,3.35-0.21,5.81V311.54z"></path></g></svg>